<?xml version="1.0" standalone="no"?>
<svg viewBox="0 0 200 200" xmlns="http://www.w3.org/2000/svg">
  <path fill="#B0E64C" d="M21.6,-36.3C30.9,-32,43.4,-32.1,53.6,-26.8C63.8,-21.5,71.8,-10.7,75.8,2.3C79.9,15.4,80.1,30.9,74.2,43.7C68.3,56.5,56.4,66.7,43,66.5C29.6,66.2,14.8,55.5,-0.9,57.1C-16.6,58.7,-33.3,72.5,-42.4,70.4C-51.6,68.2,-53.4,50,-60.7,35.6C-68,21.2,-80.9,10.6,-78.6,1.3C-76.3,-8,-58.8,-15.9,-48.4,-24.9C-37.9,-33.8,-34.5,-43.8,-27.6,-49.5C-20.7,-55.2,-10.4,-56.6,-2.1,-53C6.1,-49.3,12.3,-40.6,21.6,-36.3Z" transform="translate(100 100)" />
</svg>
